<?xml version="1.0" standalone="no"?>
<!DOCTYPE svg PUBLIC "-//W3C//DTD SVG 20010904//EN"
 "http://www.w3.org/TR/2001/REC-SVG-20010904/DTD/svg10.dtd">
<svg version="1.0" xmlns="http://www.w3.org/2000/svg"
 width="500.000000pt" height="500.000000pt" viewBox="0 0 500.000000 500.000000"
 preserveAspectRatio="xMidYMid meet">
<metadata>
Created by potrace 1.14, written by Peter Selinger 2001-2017
</metadata>
<g transform="translate(0.000000,500.000000) scale(0.100000,-0.100000)"
fill="#000000" stroke="none">
<path d="M2344 3882 c6 -35 5 -36 -50 -46 -28 -4 -33 -2 -42 27 -10 28 -11 23
-6 -33 3 -36 10 -69 16 -75 7 -7 8 1 4 26 -6 35 -5 37 25 43 50 10 56 8 67
-26 10 -29 10 -24 6 32 -3 36 -11 70 -16 75 -7 7 -9 0 -4 -23z"/>
<path d="M2640 3880 c-45 -45 -11 -120 54 -120 39 0 76 37 76 75 0 55 -89 86
-130 45z m92 -7 c36 -33 11 -103 -37 -103 -35 0 -58 24 -58 60 0 54 55 79 95
43z"/>
<path d="M2046 3844 c-51 -18 -59 -27 -22 -22 28 3 30 0 48 -54 11 -32 24 -58
28 -58 5 0 0 25 -11 57 -24 70 -24 68 4 81 32 16 -1 13 -47 -4z"/>
<path d="M2895 3814 c-23 -55 -16 -96 18 -112 39 -19 70 3 91 64 20 58 12 72
-9 18 -9 -21 -19 -46 -24 -54 -12 -21 -55 -24 -71 -5 -12 14 -11 24 4 67 21
59 14 77 -9 22z"/>
<path d="M2490 3775 c1 -26 2 -28 11 -12 8 14 8 22 0 30 -8 8 -11 3 -11 -18z"/>
<path d="M3122 3696 c-34 -58 -43 -91 -14 -57 14 17 20 18 34 8 9 -7 21 -29
26 -48 l10 -34 1 33 c1 21 6 32 15 32 8 0 22 10 30 21 19 27 5 61 -33 80 -14
7 -28 15 -31 16 -3 2 -20 -21 -38 -51z m73 18 c28 -18 32 -45 10 -64 -12 -10
-21 -10 -45 0 -34 14 -36 21 -14 55 19 30 18 29 49 9z"/>
<path d="M1851 3683 c18 -32 34 -60 36 -62 5 -7 83 31 83 41 0 5 -13 2 -30 -7
-43 -22 -47 -20 -75 35 -14 28 -30 50 -36 50 -6 0 4 -26 22 -57z"/>
<path d="M1654 3607 c3 -12 10 -46 16 -75 11 -50 31 -75 24 -29 -5 32 47 72
76 57 11 -6 20 -7 20 -3 0 10 -114 73 -130 73 -8 0 -10 -9 -6 -23z m56 -14
l28 -16 -24 -20 c-29 -22 -32 -21 -40 21 -7 37 -3 38 36 15z"/>
<path d="M3422 3459 c-29 -27 -47 -49 -38 -49 8 0 18 5 21 10 4 6 18 0 37 -15
33 -28 41 -30 69 -15 28 16 24 61 -8 92 l-28 26 -53 -49z m93 -38 c-8 -27 -46
-28 -70 -1 -18 20 -18 21 5 45 l24 26 24 -25 c17 -17 22 -30 17 -45z"/>
<path d="M1479 3464 l-34 -36 50 -44 c28 -24 52 -44 56 -44 3 0 20 16 39 35
19 19 29 35 23 35 -6 0 -20 -11 -31 -25 -23 -29 -35 -31 -52 -10 -11 13 -9 20
9 38 31 34 26 45 -7 14 -25 -24 -30 -26 -48 -13 -19 14 -19 15 2 38 22 24 38
48 32 48 -2 0 -20 -16 -39 -36z"/>
<path d="M3577 3283 c-31 -19 -57 -39 -57 -44 0 -5 9 -4 20 3 28 18 42 -4 36
-57 -4 -37 -4 -38 7 -13 9 22 15 26 37 21 37 -7 63 28 49 64 -24 63 -29 65
-92 26z m83 -44 c0 -10 -9 -23 -20 -29 -17 -9 -25 -6 -46 17 l-26 28 29 22 28
23 18 -21 c9 -12 17 -30 17 -40z"/>
<path d="M1350 3300 c0 -5 4 -10 8 -10 5 0 17 -6 27 -14 18 -13 18 -14 -4 -50
-13 -20 -25 -36 -27 -36 -3 0 -16 7 -29 16 -14 9 -25 12 -25 6 0 -5 27 -26 60
-45 62 -37 79 -38 35 -2 l-25 20 21 33 c21 32 42 41 54 22 3 -5 14 -10 23 -10
9 0 -11 18 -46 40 -68 43 -72 45 -72 30z"/>
<path d="M2330 3066 l0 -234 -62 -21 c-138 -45 -299 -71 -433 -71 l-55 0 0
-165 0 -165 28 0 c63 0 213 24 290 46 197 57 345 172 446 345 58 102 106 270
121 427 l7 72 -171 0 -171 0 0 -234z"/>
<path d="M3665 3065 c-30 -30 -32 -64 -4 -99 15 -19 30 -26 54 -26 24 0 39 7
54 26 24 30 26 43 10 77 -11 25 -47 47 -75 47 -8 0 -26 -11 -39 -25z m89 -11
c43 -43 -5 -120 -60 -96 -13 7 -29 23 -36 36 -24 55 53 103 96 60z"/>
<path d="M1181 2916 c-7 -8 -14 -30 -18 -48 l-5 -34 66 -18 c37 -10 70 -15 74
-12 3 4 -4 9 -16 13 -35 9 -30 51 8 64 17 6 30 15 30 20 0 5 -12 4 -26 -2 -22
-8 -29 -6 -41 11 -16 23 -55 26 -72 6z m57 -8 c14 -14 16 -47 4 -66 -6 -8 -19
-10 -40 -6 -28 6 -31 9 -26 33 12 48 37 64 62 39z"/>
<path d="M3046 2839 c-408 -59 -649 -319 -708 -760 -6 -47 -8 -94 -5 -103 6
-15 25 -16 169 -14 l163 3 3 231 2 232 39 16 c106 42 301 76 438 76 l73 0 0
165 0 165 -57 -1 c-32 -1 -85 -5 -117 -10z"/>
<path d="M3747 2820 c-59 -11 -57 -23 3 -16 l55 7 -39 -35 -39 -35 54 -25 54
-24 -35 -2 c-19 -1 -46 -6 -60 -11 -16 -5 -1 -7 45 -3 39 3 74 9 78 13 5 5
-19 18 -53 31 l-60 23 37 33 c21 18 41 33 46 34 4 0 7 5 7 10 0 11 -36 11 -93
0z"/>
<path d="M1179 2669 c60 -10 81 -23 81 -48 0 -30 -23 -41 -84 -41 -43 0 -57
-3 -46 -10 8 -5 36 -10 61 -10 53 0 79 21 79 63 0 37 -34 57 -95 56 l-50 -1
54 -9z"/>
<path d="M3730 2530 c0 -6 30 -10 70 -10 40 0 70 4 70 10 0 6 -30 10 -70 10
-40 0 -70 -4 -70 -10z"/>
<path d="M1160 2420 c-44 -44 -11 -130 50 -130 35 0 70 38 70 76 0 62 -77 97
-120 54z m84 -11 c45 -36 23 -99 -35 -99 -79 0 -77 109 2 119 4 1 18 -8 33
-20z"/>
<path d="M3732 2398 c-30 -39 -20 -98 18 -98 13 0 27 14 40 40 22 44 31 48 50
25 10 -12 10 -21 2 -40 -7 -15 -8 -25 -2 -25 5 0 12 11 16 24 17 69 -43 94
-73 31 -20 -43 -53 -48 -53 -9 0 14 5 34 10 45 12 21 8 25 -8 7z"/>
<path d="M3666 2154 c-9 -26 -14 -50 -11 -52 2 -3 7 1 9 9 25 70 26 70 49 63
29 -9 29 -6 16 -43 -6 -18 -9 -34 -6 -37 3 -3 10 11 17 31 10 30 15 35 33 29
29 -9 29 -8 17 -38 -5 -15 -10 -35 -9 -44 1 -20 27 45 28 70 1 11 -15 22 -51
34 -29 9 -58 19 -64 21 -7 2 -19 -17 -28 -43z"/>
<path d="M1180 2162 c0 -5 20 -13 46 -18 l45 -9 -30 -35 c-47 -54 -36 -61 13
-7 24 26 51 47 60 47 9 0 16 3 16 8 0 4 -21 7 -47 7 -27 0 -60 3 -75 8 -16 4
-28 4 -28 -1z"/>
<path d="M1420 1610 c0 -107 3 -130 15 -130 11 0 15 19 17 93 l3 92 45 -74
c25 -41 50 -76 55 -78 6 -1 30 32 55 75 l45 77 3 -92 c2 -74 6 -93 17 -93 12
0 15 23 15 130 0 99 -3 130 -13 130 -7 0 -37 -41 -66 -90 -61 -103 -49 -104
-121 18 -62 105 -70 99 -70 -58z"/>
<path d="M1797 1734 c-4 -4 -7 -63 -7 -131 l0 -123 95 0 c78 0 95 3 95 15 0
12 -15 15 -75 15 l-75 0 0 45 0 45 65 0 c51 0 65 3 65 15 0 12 -14 15 -65 15
l-65 0 0 40 0 40 76 0 c56 0 75 3 72 13 -5 13 -168 23 -181 11z"/>
<path d="M2070 1610 l0 -130 70 0 c114 0 170 43 170 130 0 87 -58 130 -175
130 l-65 0 0 -130z m150 82 c64 -32 76 -104 24 -153 -18 -17 -39 -24 -84 -27
l-60 -4 0 94 c0 52 3 98 7 101 12 13 78 7 113 -11z"/>
<path d="M2400 1610 c0 -109 2 -130 15 -130 13 0 15 21 15 130 0 109 -2 130
-15 130 -13 0 -15 -21 -15 -130z"/>
<path d="M2585 1724 c-89 -46 -97 -173 -13 -224 43 -26 117 -27 148 -2 33 27
18 46 -20 27 -39 -20 -69 -19 -107 5 -58 35 -54 134 8 165 36 19 69 19 97 -1
22 -15 42 -12 42 6 0 16 -57 40 -92 40 -18 0 -46 -7 -63 -16z"/>
<path d="M2850 1619 c-30 -67 -56 -126 -58 -130 -2 -5 5 -9 16 -9 13 0 24 10
31 30 10 29 11 30 80 30 68 0 71 -1 86 -30 9 -17 24 -30 34 -30 17 0 12 16
-39 128 -41 90 -64 128 -77 130 -15 2 -29 -20 -73 -119z m120 -36 c0 -9 -17
-13 -51 -13 -48 0 -50 1 -43 23 3 12 16 40 27 62 l20 40 23 -50 c13 -27 24
-56 24 -62z"/>
<path d="M3120 1610 c0 -123 1 -130 20 -130 17 0 20 7 20 40 0 40 0 40 39 40
34 0 42 -5 65 -40 16 -25 34 -40 47 -40 19 0 18 3 -9 43 l-30 42 23 17 c51 39
36 125 -26 147 -18 6 -58 11 -90 11 l-59 0 0 -130z m158 73 c34 -47 -3 -93
-75 -93 l-43 0 0 61 0 62 53 -6 c32 -4 57 -13 65 -24z"/>
<path d="M3410 1610 l0 -130 95 0 c78 0 95 3 95 15 0 12 -15 15 -75 15 l-75 0
0 45 0 45 66 0 c48 0 65 3 62 13 -3 7 -28 13 -66 15 l-62 3 0 39 0 40 70 0
c56 0 70 3 70 15 0 12 -17 15 -90 15 l-90 0 0 -130z"/>
<path d="M1632 1280 c0 -48 2 -50 7 -20 l7 35 15 -29 16 -29 19 28 19 29 6
-34 c5 -30 7 -26 7 20 1 58 -2 58 -39 0 -8 -13 -11 -13 -22 3 -36 55 -36 54
-35 -3z"/>
<path d="M1800 1280 l0 -50 38 2 c36 1 36 1 5 5 -40 5 -46 33 -8 33 14 0 25 5
25 10 0 6 -11 10 -25 10 -38 0 -32 28 8 33 31 4 31 4 -5 5 l-38 2 0 -50z"/>
<path d="M1930 1280 c0 -50 0 -50 33 -50 40 0 57 15 57 52 0 30 -23 48 -64 48
-24 0 -26 -3 -26 -50z m64 27 c21 -15 18 -45 -5 -60 -26 -16 -49 -1 -49 31 0
44 19 54 54 29z"/>
<path d="M2083 1280 c0 -30 2 -43 4 -27 2 15 2 39 0 55 -2 15 -4 2 -4 -28z"/>
<path d="M2167 1312 c-10 -10 -17 -25 -17 -34 0 -35 69 -64 86 -36 5 8 2 9
-11 4 -29 -11 -55 3 -55 28 0 31 23 49 52 41 18 -5 20 -4 8 4 -22 16 -45 13
-63 -7z"/>
<path d="M2310 1284 c-23 -53 -25 -63 -8 -46 14 14 68 16 68 2 0 -5 5 -10 10
-10 6 0 -1 23 -15 50 -14 28 -28 50 -31 50 -2 0 -14 -21 -24 -46z m40 -6 c0
-5 -7 -8 -15 -8 -17 0 -18 2 -9 25 5 13 8 14 15 3 5 -7 9 -16 9 -20z"/>
<path d="M2442 1283 l-2 -53 33 1 c29 2 29 2 5 6 -24 4 -27 9 -31 51 l-3 47
-2 -52z"/>
<path d="M2640 1310 c-24 -24 -24 -29 -4 -58 16 -23 58 -30 70 -11 4 8 -1 9
-15 4 -43 -13 -71 43 -32 65 11 5 27 7 37 3 12 -4 15 -3 10 5 -11 18 -44 14
-66 -8z"/>
<path d="M2770 1280 l0 -50 38 1 c35 1 35 2 8 8 -38 8 -47 31 -12 31 14 0 26
5 26 10 0 6 -12 10 -26 10 -35 0 -26 23 12 31 27 6 27 7 -8 8 l-38 1 0 -50z"/>
<path d="M2902 1280 c1 -46 2 -48 5 -15 l4 39 34 -39 34 -40 -1 55 c-1 43 -2
47 -5 17 l-4 -39 -34 39 -34 38 1 -55z"/>
<path d="M3053 1323 c13 -3 17 -16 19 -51 l1 -47 6 44 c4 31 12 46 26 52 14 5
6 7 -25 7 -25 0 -37 -2 -27 -5z"/>
<path d="M3171 1278 c1 -29 3 -45 6 -35 5 21 39 23 47 2 3 -8 11 -15 17 -15 9
0 8 4 0 14 -9 11 -9 19 0 34 17 27 -3 52 -42 52 -28 0 -29 -1 -28 -52z m54 17
c0 -13 -8 -21 -22 -23 -17 -3 -23 2 -23 16 0 10 3 22 7 26 13 13 38 1 38 -19z"/>
<path d="M3310 1280 l0 -50 38 2 c36 1 36 1 5 5 -40 5 -46 33 -8 33 14 0 25 5
25 10 0 6 -11 10 -25 10 -38 0 -32 28 8 33 31 4 31 4 -5 5 l-38 2 0 -50z"/>
</g>
</svg>
